<?xml version="1.0" standalone="no"?> <!DOCTYPE svg PUBLIC "-//W3C//DTD SVG 1.0//EN" "http://www.w3.org/TR/2001/REC-SVG-20010904/DTD/svg10.dtd" > <svg xmlns="http://www.w3.org/2000/svg" width="100%" height="100%">
<defs >
<font id="zurich-ltcn-bt-light" horiz-adv-x="736" ><font-face
    font-family="Zurich LtCn BT"
    units-per-em="2048"
    panose-1="2 11 4 6 2 2 2 4 2 4"
    ascent="1972"
    descent="-483"
    alphabetic="0" />
<missing-glyph horiz-adv-x="1229" d="M102 -362V1444H1126V-362H102ZM217 -248H1012V1329H217V-248Z" />
<glyph unicode=" " glyph-name="space" horiz-adv-x="471" />
<glyph unicode="!" glyph-name="exclam" horiz-adv-x="569" d="M231 348L213 1475H365L338 348H231ZM209 0V166H362V0H209Z" />
<glyph unicode="&quot;" glyph-name="quotedbl" horiz-adv-x="551" d="M451 1434V881H365V1434H451ZM186 1434V881H100V1434H186Z" />
<glyph unicode="#" glyph-name="numbersign" horiz-adv-x="1575" d="M979 866H709L610 584H879L979 866ZM915 1454L741 956H1012L1188 1454H1298L1124 956H1446L1415 866H1092L991 584H1339L1309 494H958L784 0H672L848 494H578L399 0H289L463 494H129L160 584H496L596
866H236L264 956H629L805 1454H915Z" />
<glyph unicode="$" glyph-name="dollar" horiz-adv-x="940" d="M434 838V1327Q346 1324 299 1269T252 1110Q252 1015 293 954T434 838ZM516 647V103Q624 112 671 169T719 350Q719 457 676 520T516 647ZM434 -184V0Q266 3 179 96T92 369V399H217V362Q217 228 270
163T434 98V698Q257 798 192 884T127 1100Q127 1250 206 1335T434 1427V1579H516V1427Q673 1421 747 1341T821 1096Q821 1089 820 1073T819 1049H698V1087Q698 1211 656 1265T517 1327L516 791Q719 680 782 593T846 356Q846 182 763 93T517 0L516 -184H434Z" />
<glyph unicode="%" glyph-name="percent" horiz-adv-x="1362" d="M332 -25L942 1450H1036L422 -25H332ZM322 1362Q243 1362 205 1294T166 1087Q166 941 204 870T322 799Q399 799 438 869T477 1077Q477 1215 437 1288T322 1362ZM594 1067Q594 892 525 802T322 711Q184
711 117 802T49 1081Q49 1268 116 1359T322 1450Q457 1450 525 1354T594 1067ZM1040 627Q962 627 924 559T885 352Q885 206 923 135T1040 63Q1117 63 1156 133T1196 342Q1196 479 1156 553T1040 627ZM1040 715Q1176 715 1244 619T1313 332Q1313 157 1244 66T1040
-25Q903 -25 836 67T768 346Q768 533 835 624T1040 715Z" />
<glyph unicode="&amp;" glyph-name="ampersand" horiz-adv-x="948" d="M580 0Q418 0 355 10T248 45Q165 90 126 178T86 406Q86 551 139 632T317 758Q214 781 157 870T100 1098Q100 1283 216 1380T555 1477Q581 1477 594 1477T620 1475L621 1360H578Q393 1360 317
1299T240 1094Q240 959 311 885T514 811H641V1038H774V811H940V702H774V0H580ZM641 115V702H539Q381 702 302 631T223 416Q223 348 235 295T274 201Q305 154 351 135T510 115H539H641Z" />
<glyph unicode="&apos;" glyph-name="quotesingle" horiz-adv-x="285" d="M186 1434V881H100V1434H186Z" />
<glyph unicode="(" glyph-name="parenleft" horiz-adv-x="569" d="M369 -285Q280 -22 238 204T195 637Q195 835 237 1052T362 1497H461Q399 1277 369 1062T338 633Q338 415 371 188T471 -285H369Z" />
<glyph unicode=")" glyph-name="parenright" horiz-adv-x="569" d="M219 -285H115Q183 -35 216 191T250 633Q250 846 219 1061T127 1497H223Q307 1269 349 1052T391 637Q391 428 349 201T219 -285Z" />
<glyph unicode="*" glyph-name="asterisk" horiz-adv-x="940" d="M471 1120L356 874L258 932L414 1153L143 1130V1243L414 1221L258 1442L356 1497L471 1253L584 1497L682 1442L528 1221L797 1243V1130L528 1153L682 932L584 874L471 1120Z" />
<glyph unicode="+" glyph-name="plus" horiz-adv-x="1706" d="M893 1221V651H1452V569H893V0H813V569H254V651H813V1221H893Z" />
<glyph unicode="," glyph-name="comma" horiz-adv-x="469" d="M104 -207L186 166H342L219 -207H104Z" />
<glyph unicode="-" glyph-name="hyphen" horiz-adv-x="569" d="M74 457V571H496V457H74Z" />
<glyph unicode="." glyph-name="period" horiz-adv-x="469" d="M156 0V166H313V0H156Z" />
<glyph unicode="/" glyph-name="slash" horiz-adv-x="569" d="M27 -190H-76L516 1493H621L27 -190Z" />
<glyph unicode="0" glyph-name="zero" horiz-adv-x="940" d="M471 1452Q566 1452 635 1421T750 1325Q801 1253 822 1131T844 713Q844 416 823 295T750 102Q703 38 634 6T471 -27Q377 -27 307 5T190 102Q139 173 118 294T96 713Q96 1010 117 1132T190 1325Q236
1389 306 1420T471 1452ZM715 713Q715 1095 661 1220T469 1346Q331 1346 277 1221T223 713Q223 331 277 207T469 82Q607 82 661 206T715 713Z" />
<glyph unicode="1" glyph-name="one" horiz-adv-x="940" d="M578 0H449V1253Q418 1211 361 1165T207 1057V1202Q279 1244 342 1300T463 1427H578V0Z" />
<glyph unicode="2" glyph-name="two" horiz-adv-x="940" d="M831 0H109V127L567 813Q632 911 665 993T698 1139Q698 1231 641 1285T485 1339Q369 1339 309 1272T248 1077H115V1094Q115 1266 211 1359T483 1452Q652 1452 740 1372T829 1139Q829 1049 791 952T655
709L258 117H831V0Z" />
<glyph unicode="3" glyph-name="three" horiz-adv-x="940" d="M78 356H207V344Q207 219 265 155T438 90Q557 90 612 161T668 385Q668 554 610 620T406 686Q384 686 373 686T353 684L352 797Q523 797 590 858T657 1075Q657 1218 605 1280T436 1343Q334 1343 279
1284T223 1114V1085H96V1114Q96 1281 182 1365T438 1450Q626 1450 707 1366T788 1083Q788 934 736 852T569 741Q695 728 749 646T803 383Q803 181 710 77T434 -27Q268 -27 172 63T76 309Q76 328 76 338T78 356Z" />
<glyph unicode="4" glyph-name="four" horiz-adv-x="940" d="M575 0V365H74V516L512 1427H707V471H866V365H707V0H575ZM575 469V1071Q576 1134 578 1202T586 1347Q563 1292 542 1243T500 1149L170 469H575Z" />
<glyph unicode="5" glyph-name="five" horiz-adv-x="940" d="M104 340H238V328Q238 209 294 147T457 84Q589 84 644 174T700 483Q700 645 644 722T467 799Q379 799 323 761T246 651H121L135 1427H776V1317H258L244 809Q283 856 345 879T494 903Q668 903 752 800T836
481Q836 209 748 92T455 -25Q276 -25 190 63T104 334V340Z" />
<glyph unicode="6" glyph-name="six" horiz-adv-x="940" d="M246 973V754Q268 817 337 856T500 895Q675 895 756 788T838 451Q838 206 750 91T475 -25Q380 -25 306 5T186 94Q140 153 121 254T102 610V715Q102 908 112 1040T141 1231Q176 1338 258 1392T467 1446Q641
1446 726 1369T811 1133V1110H686V1116Q686 1232 635 1286T477 1341Q353 1341 300 1257T246 973ZM473 88Q596 88 651 173T707 449Q707 627 654 704T483 782Q360 782 300 695T240 428Q240 260 298 174T473 88Z" />
<glyph unicode="7" glyph-name="seven" horiz-adv-x="940" d="M256 0L705 1305H111V1427H827V1266L397 0H256Z" />
<glyph unicode="8" glyph-name="eight" horiz-adv-x="940" d="M313 733Q211 771 165 847T119 1057Q119 1240 207 1332T469 1425Q644 1425 732 1333T821 1057Q821 923 775 847T627 733Q736 712 789 622T842 365Q842 169 750 72T471 -25Q282 -25 190 71T98 365Q98
530 151 620T313 733ZM471 78Q587 78 647 151T707 369Q707 527 650 603T475 680Q348 680 290 606T231 369Q231 222 290 150T471 78ZM686 1053Q686 1191 634 1255T469 1319Q356 1319 303 1255T250 1053Q250 916 305 848T471 780Q577 780 631 849T686 1053Z" />
<glyph unicode="9" glyph-name="nine" horiz-adv-x="940" d="M694 449V670Q672 606 602 566T440 526Q265 526 184 633T102 971Q102 1215 190 1330T465 1446Q560 1446 634 1416T754 1327Q800 1268 819 1167T838 811V707Q838 513 828 382T799 193Q763 85 681 30T473
-25Q300 -25 215 53T129 289V311H254V305Q254 190 305 135T463 80Q587 80 640 164T694 449ZM467 1333Q344 1333 289 1249T233 975Q233 797 286 718T457 639Q580 639 640 726T700 993Q700 1162 642 1247T467 1333Z" />
<glyph unicode=":" glyph-name="colon" horiz-adv-x="498" d="M170 862V1028H328V862H170ZM170 0V166H328V0H170Z" />
<glyph unicode=";" glyph-name="semicolon" horiz-adv-x="498" d="M170 862V1028H328V862H170ZM80 -209L170 166H328L199 -209H80Z" />
<glyph unicode="&lt;" glyph-name="less" horiz-adv-x="1706" d="M1442 1034L397 610L1442 186V98L264 580V641L1442 1124V1034Z" />
<glyph unicode="=" glyph-name="equal" horiz-adv-x="1706" d="M1452 469V387H254V469H1452ZM1452 831V752H254V831H1452Z" />
<glyph unicode="&gt;" glyph-name="greater" horiz-adv-x="1706" d="M1442 641V580L264 98V186L1309 610L264 1034V1124L1442 641Z" />
<glyph unicode="?" glyph-name="question" horiz-adv-x="758" d="M315 348V518Q315 575 316 598T319 638Q327 689 403 810Q416 831 424 844Q429 852 441 871Q535 1010 535 1171Q535 1278 493 1331T365 1384Q287 1384 251 1338T215 1190V1155H80Q80 1162 79 1176T78
1198Q78 1346 149 1419T365 1493Q514 1493 591 1415T668 1184Q668 1085 643 997T567 827Q548 798 508 739T457 655Q445 627 440 594T434 510V465V348H315ZM291 0V166H444V0H291Z" />
<glyph unicode="@" glyph-name="at" horiz-adv-x="2048" d="M1303 827L1364 956H1444L1307 403Q1297 367 1292 339T1286 295Q1286 251 1316 227T1403 203Q1451 203 1503 222T1606 279Q1707 353 1768 486T1829 768Q1829 1041 1630 1207T1104 1374Q936 1374 794
1326T535 1182Q381 1054 303 885T225 510Q225 183 446 -12T1038 -207Q1199 -207 1362 -157T1661 -14L1690 -59Q1544 -169 1382 -224T1042 -279Q855 -279 699 -233T422 -94Q270 21 196 173T121 522Q121 684 171 829T319 1094Q463 1269 664 1359T1114 1450Q1274 1450
1418 1406T1667 1282Q1795 1184 1861 1056T1927 778Q1927 609 1864 470T1683 238Q1616 184 1538 156T1378 127Q1283 127 1235 163T1186 272Q1186 284 1189 306Q1190 309 1190 311Q1141 223 1065 175T899 127Q745 127 666 210T586 453Q586 681 720 839T1047 997Q1142
997 1207 954T1303 827ZM1219 467L1282 721Q1260 820 1201 872T1049 924Q897 924 794 786T690 446Q690 331 747 266T907 201Q1018 201 1103 273T1219 467Z" />
<glyph unicode="A" glyph-name="A" horiz-adv-x="1141" d="M315 508H815L569 1339L315 508ZM162 0H27L500 1475H649L1112 0H967L846 393H279L162 0Z" />
<glyph unicode="B" glyph-name="B" horiz-adv-x="1014" d="M139 0V1475H432Q712 1475 804 1396T897 1102Q897 952 847 873T684 768Q810 742 869 655T928 410Q928 282 897 200T801 68Q751 31 677 16T432 0H139ZM268 815H424Q611 815 686 880T762 1104Q762 1259
702 1312T432 1366H268V815ZM268 109H432Q656 109 721 172T786 414Q786 580 710 645T424 711H268V109Z" />
<glyph unicode="C" glyph-name="C" horiz-adv-x="1028" d="M795 430H936V424Q936 210 830 93T528 -25Q418 -25 333 19T193 147Q149 214 131 316T113 676V733Q113 955 123 1059T156 1239Q193 1360 294 1428T537 1497Q741 1497 832 1400T924 1085V1077H787Q785 1241
727 1315T541 1389Q381 1389 317 1265T252 809Q252 631 258 509T279 313Q299 208 365 150T530 92Q654 92 724 173T795 397V430Z" />
<glyph unicode="D" glyph-name="D" horiz-adv-x="1096" d="M272 113H438Q558 113 627 129T737 184Q796 239 820 352T844 733Q844 951 829 1068T778 1243Q736 1311 664 1338T438 1366H272V113ZM139 1475H469Q611 1475 693 1452T834 1374Q915 1298 949 1158T983
733Q983 452 949 314T834 100Q776 47 694 24T469 0H139V1475Z" />
<glyph unicode="E" glyph-name="E" horiz-adv-x="883" d="M801 0H139V1475H801V1360H272V815H770V707H272V123H801V0Z" />
<glyph unicode="F" glyph-name="F" horiz-adv-x="801" d="M139 0V1475H758V1360H272V815H725V707H272V0H139Z" />
<glyph unicode="G" glyph-name="G" horiz-adv-x="1085" d="M836 670H545V776H971V41Q854 8 749 -8T549 -25Q444 -25 360 10T221 113Q162 186 138 314T113 750Q113 1037 139 1164T229 1368Q284 1433 367 1465T565 1497Q776 1497 878 1407T981 1130V1108H854Q854
1252 787 1319T573 1386Q491 1386 431 1359T332 1276Q289 1215 272 1103T254 737Q254 482 271 371T332 199Q372 143 433 116T578 88Q631 88 695 99T836 135V670Z" />
<glyph unicode="H" glyph-name="H" horiz-adv-x="1114" d="M272 0H139V1475H272V815H842V1475H975V0H842V702H272V0Z" />
<glyph unicode="I" glyph-name="I" horiz-adv-x="418" d="M141 0V1475H274V0H141Z" />
<glyph unicode="J" glyph-name="J" horiz-adv-x="915" d="M194 424Q194 415 194 404T193 371Q193 228 247 157T412 86Q541 86 590 165T639 506V1475H768V506Q768 330 756 252T715 125Q670 50 595 13T410 -25Q238 -25 152 75T66 375Q66 383 67 399T68 424H194Z" />
<glyph unicode="K" glyph-name="K" horiz-adv-x="1028" d="M166 0V1475H297V807L838 1473H991L432 786L991 0H836L297 752V0H166Z" />
<glyph unicode="L" glyph-name="L" horiz-adv-x="803" d="M160 0V1475H295V115H786V0H160Z" />
<glyph unicode="M" glyph-name="M" horiz-adv-x="1559" d="M131 0V1475H346L700 416Q716 369 737 289T780 111Q820 273 835 334T858 416L1212 1475H1427V0H1300V1108Q1300 1134 1302 1212T1309 1390L850 0H702L244 1396Q249 1282 251 1216T254 1108V0H131Z" />
<glyph unicode="N" glyph-name="N" horiz-adv-x="1214" d="M139 0V1475H346L969 84Q956 164 950 245T944 408V1475H1073V0H874L250 1380Q260 1316 265 1243T270 1085V0H139Z" />
<glyph unicode="O" glyph-name="O" horiz-adv-x="1133" d="M113 737Q113 1040 139 1166T229 1368Q285 1433 369 1465T565 1497Q676 1497 761 1465T901 1368Q965 1292 991 1163T1018 737Q1018 439 992 310T901 106Q847 44 759 10T565 -25Q459 -25 372 9T229 106Q165
181 139 310T113 737ZM250 737Q250 352 319 221T565 90Q742 90 810 220T879 737Q879 1126 811 1256T565 1386Q388 1386 319 1255T250 737Z" />
<glyph unicode="P" glyph-name="P" horiz-adv-x="915" d="M272 0H139V1475H487Q695 1475 786 1383T877 1081Q877 864 782 773T453 682H272V0ZM272 1372V784H463Q627 784 689 849T752 1081Q752 1243 689 1307T463 1372H272Z" />
<glyph unicode="Q" glyph-name="Q" horiz-adv-x="1133" d="M828 105Q895 110 966 112T1114 115V0H729Q703 0 649 -6T567 -12Q489 -12 422 6T297 61Q195 127 154 263T113 745Q113 1045 139 1170T229 1370Q285 1435 367 1466T565 1497Q680 1497 763 1466T901 1370Q964
1296 991 1172T1018 799Q1018 412 976 282T828 105ZM250 743Q250 508 269 390T332 211Q369 158 430 129T565 100Q639 100 700 129T799 211Q842 271 860 390T879 743Q879 1129 811 1255T565 1382Q386 1382 318 1256T250 743Z" />
<glyph unicode="R" glyph-name="R" horiz-adv-x="1026" d="M541 711H268V0H139V1475H432Q712 1475 804 1396T897 1102Q897 951 847 872T684 768Q796 747 839 684T883 463V369Q883 286 889 194T909 0H766Q752 154 750 327T745 521Q734 624 687 667T541 711ZM268
815H424Q614 815 689 881T764 1116Q764 1258 700 1312T451 1366H268V815Z" />
<glyph unicode="S" glyph-name="S" horiz-adv-x="1028" d="M113 416L250 415Q249 408 249 398T248 367Q248 228 315 158T514 88Q636 88 709 160T782 352Q782 438 735 503T496 690Q479 701 445 723Q299 815 238 868Q183 917 154 988T125 1145Q125 1308 233 1403T528
1499Q713 1499 811 1403T909 1124V1094H774V1108Q774 1249 712 1317T520 1386Q402 1386 331 1323T260 1153Q260 1061 318 988T602 774Q800 652 859 569T918 369Q918 182 810 79T506 -25Q311 -25 211 74T111 365Q111 386 111 397T113 416Z" />
<glyph unicode="T" glyph-name="T" horiz-adv-x="868" d="M369 0V1360H10V1475H856V1360H496V0H369Z" />
<glyph unicode="U" glyph-name="U" horiz-adv-x="1139" d="M137 1475H270V508Q270 375 281 310T319 205Q359 147 423 116T569 84Q650 84 715 115T819 205Q846 244 857 309T868 508V1475H999V508Q999 219 900 97T569 -25Q339 -25 238 98T137 508V1475Z" />
<glyph unicode="V" glyph-name="V" horiz-adv-x="1010" d="M416 0L10 1475H154L410 516Q424 465 447 362T500 121Q525 235 597 495L604 520L868 1475H997L582 0H416Z" />
<glyph unicode="W" glyph-name="W" horiz-adv-x="1688" d="M395 0L25 1475H156L432 346Q452 270 463 214T483 100Q494 173 505 234T526 346L768 1475H965L1221 348Q1222 341 1226 325Q1256 200 1270 100Q1277 152 1288 209T1317 346L1567 1475H1692L1343 0H1176L913
1137Q911 1146 907 1164Q873 1305 864 1380Q847 1277 822 1150L819 1136L571 0H395Z" />
<glyph unicode="X" glyph-name="X" horiz-adv-x="1010" d="M10 0L406 768L41 1475H195L498 858L819 1475H961L584 766L999 0H844L494 672L158 0H10Z" />
<glyph unicode="Y" glyph-name="Y" horiz-adv-x="952" d="M412 0V602L-10 1475H143L481 741L825 1475H963L545 602V0H412Z" />
<glyph unicode="Z" glyph-name="Z" horiz-adv-x="891" d="M41 0V127L537 1032Q547 1053 643 1215L729 1360H92V1475H852V1329L184 119H852V0H41Z" />
<glyph unicode="[" glyph-name="bracketleft" horiz-adv-x="569" d="M498 -301H209V1475H498V1389H328V-215H498V-301Z" />
<glyph unicode="\" glyph-name="backslash" horiz-adv-x="569" d="M541 -190L-51 1493H51L645 -190H541Z" />
<glyph unicode="]" glyph-name="bracketright" horiz-adv-x="569" d="M72 -301V-215H242V1389H72V1475H358V-301H72Z" />
<glyph unicode="^" glyph-name="asciicircum" horiz-adv-x="2048" d="M1081 1458L1622 901H1497L1024 1370L549 901H424L963 1458H1081Z" />
<glyph unicode="_" glyph-name="underscore" horiz-adv-x="1024" d="M1024 -403V-483H0V-403H1024Z" />
<glyph unicode="`" glyph-name="grave" horiz-adv-x="1024" d="M545 1163L276 1511H428L637 1163H545Z" />
<glyph unicode="a" glyph-name="a" horiz-adv-x="874" d="M622 541Q365 539 273 486T180 297Q180 200 227 145T358 90Q488 90 555 175T623 426L622 541ZM647 0L635 141Q576 67 500 30T334 -8Q209 -8 134 75T59 297Q59 460 170 541T514 631L623 635V748Q623 859
573 906T408 954Q314 954 268 911T219 781L94 780Q94 915 179 984T430 1053Q595 1053 672 981T750 754V188Q750 145 753 98T762 0H647Z" />
<glyph unicode="b" glyph-name="b" horiz-adv-x="915" d="M229 0H111Q116 40 118 84T121 184V1475H240V905Q289 977 352 1012T494 1047Q668 1047 745 923T823 512Q823 228 745 102T494 -25Q411 -25 349 10T240 119L229 0ZM479 82Q596 82 647 175T698 483Q698 752
649 847T473 942Q352 942 299 838T246 485Q246 279 303 181T479 82Z" />
<glyph unicode="c" glyph-name="c" horiz-adv-x="858" d="M768 305Q762 142 677 57T434 -29Q249 -29 169 94T88 504Q88 799 166 926T424 1053Q588 1053 674 974T768 735L645 736Q640 844 588 901T442 958Q318 958 269 865T219 518Q219 261 267 170T438 78Q542
78 594 134T650 305H768Z" />
<glyph unicode="d" glyph-name="d" horiz-adv-x="915" d="M684 0L676 119Q628 45 567 10T422 -25Q248 -25 170 101T92 512Q92 799 169 923T422 1047Q501 1047 563 1012T676 905V1475H795V184Q795 108 796 70T803 0H684ZM217 483Q217 268 268 175T436 82Q556 82
613 180T670 485Q670 733 617 837T442 942Q317 942 267 847T217 483Z" />
<glyph unicode="e" glyph-name="e" horiz-adv-x="905" d="M221 598H686V643Q686 802 632 875T459 948Q338 948 280 871T221 631V598ZM811 311Q802 142 716 59T461 -25Q255 -25 174 95T92 543Q92 718 112 801T182 942Q228 995 300 1024T461 1053Q629 1053 720 950T811
657V494H219V406Q219 237 275 159T453 80Q565 80 621 138T678 311H811Z" />
<glyph unicode="f" glyph-name="f" horiz-adv-x="502" d="M168 0V924H2V1028H168V1245Q168 1334 183 1376T236 1446Q272 1473 332 1485T498 1497V1391H469Q364 1391 329 1357T293 1188V1028H500V924H293V0H168Z" />
<glyph unicode="g" glyph-name="g" horiz-adv-x="915" d="M670 545Q670 751 615 849T442 948Q320 948 269 858T217 545Q217 310 266 218T436 125Q560 125 615 222T670 545ZM803 1044Q798 1012 797 974T795 860V29Q795 -111 782 -169T739 -268Q695 -326 617 -357T438
-389Q285 -389 205 -313T119 -86H254Q254 -191 300 -239T449 -287Q566 -287 617 -225T668 -16V162Q629 92 569 59T422 25Q248 25 170 148T92 549Q92 811 171 932T422 1053Q504 1053 566 1019T676 911L684 1044H803Z" />
<glyph unicode="h" glyph-name="h" horiz-adv-x="895" d="M242 0H119V1475H242V907Q289 979 357 1016T512 1053Q636 1053 707 977T778 766V0H653V717Q653 835 611 890T477 946Q363 946 303 857T242 598V0Z" />
<glyph unicode="i" glyph-name="i" horiz-adv-x="371" d="M113 1317V1475H258V1317H113ZM119 0V1028H252V0H119Z" />
<glyph unicode="j" glyph-name="j" horiz-adv-x="379" d="M260 -113Q260 -302 210 -347T12 -393H-27V-281H18Q83 -281 105 -260T127 -147V-113V1028H260V-113ZM268 1475V1317H121V1475H268Z" />
<glyph unicode="k" glyph-name="k" horiz-adv-x="784" d="M121 0V1475H244V594L602 1028H748L381 584L770 0H621L244 561V0H121Z" />
<glyph unicode="l" glyph-name="l" horiz-adv-x="371" d="M121 0V1475H248V0H121Z" />
<glyph unicode="m" glyph-name="m" horiz-adv-x="1434" d="M242 907Q289 979 357 1016T512 1053Q606 1053 670 1009T766 881Q808 963 882 1008T1049 1053Q1173 1053 1245 976T1317 766V0H1192V717Q1192 835 1150 890T1016 946Q901 946 841 857T780 598V0H653V717Q653
835 611 890T477 946Q363 946 303 857T242 598V0H119V885Q119 908 117 941T109 1028H231L242 907Z" />
<glyph unicode="n" glyph-name="n" horiz-adv-x="895" d="M242 0H119V885Q119 908 117 941T109 1028H231L242 907Q289 979 357 1016T512 1053Q636 1053 707 977T778 766V0H655V717Q655 834 612 890T477 946Q363 946 303 857T242 598V0Z" />
<glyph unicode="o" glyph-name="o" horiz-adv-x="905" d="M92 514Q92 810 175 931T453 1053Q647 1053 730 932T813 514Q813 215 731 95T455 -25Q260 -25 176 98T92 514ZM453 80Q578 80 632 172T686 487Q686 754 634 851T453 948Q325 948 272 853T219 514Q219 268
271 174T453 80Z" />
<glyph unicode="p" glyph-name="p" horiz-adv-x="915" d="M698 543Q698 758 647 851T479 944Q360 944 303 846T246 541Q246 293 299 189T473 84Q599 84 648 179T698 543ZM229 1028L240 907Q287 981 349 1016T494 1051Q667 1051 745 925T823 514Q823 227 746 104T494
-20Q415 -20 352 14T240 121V-389H121V842Q121 893 119 940T111 1028H229Z" />
<glyph unicode="q" glyph-name="q" horiz-adv-x="915" d="M436 946Q320 946 269 853T217 545Q217 277 267 182T442 86Q564 86 617 191T670 545Q670 751 613 848T436 946ZM684 1028H803Q798 996 797 958T795 844V-389H676V123Q627 52 565 18T422 -16Q247 -16 170
107T92 516Q92 800 170 926T422 1053Q505 1053 566 1018T676 909L684 1028Z" />
<glyph unicode="r" glyph-name="r" horiz-adv-x="551" d="M121 0V895Q121 923 117 959T104 1042H233L246 895Q295 975 359 1014T506 1053H530V946H504Q384 946 316 870T248 657V0H121Z" />
<glyph unicode="s" glyph-name="s" horiz-adv-x="811" d="M94 305H223V281Q223 178 268 124T397 70Q492 70 545 120T598 262Q598 315 567 356T465 436L295 526Q203 576 161 639T119 791Q119 915 195 984T412 1053Q557 1053 626 985T696 774V756H580V770Q580 865
540 906T408 948Q328 948 284 910T240 803Q240 747 270 707T377 627L537 541Q631 490 674 425T717 264Q717 125 635 50T399 -25Q247 -25 171 50T94 276V305Z" />
<glyph unicode="t" glyph-name="t" horiz-adv-x="578" d="M524 6Q505 3 479 2T391 0Q273 0 231 48T188 260V930H27V1028H188V1247L311 1307V1028H524V930H311V272Q311 166 337 136T434 106Q456 106 479 109T524 119V6Z" />
<glyph unicode="u" glyph-name="u" horiz-adv-x="895" d="M653 1028H776V143Q776 124 778 91T786 0H662L653 121Q606 49 538 12T383 -25Q258 -25 188 51T117 262V1028H240V311Q240 194 283 139T418 84Q532 84 592 172T653 430V1028Z" />
<glyph unicode="v" glyph-name="v" horiz-adv-x="809" d="M338 0L25 1028H166L377 281Q388 240 396 200T410 119Q414 147 421 180T446 279L662 1028H782L483 0H338Z" />
<glyph unicode="w" glyph-name="w" horiz-adv-x="1384" d="M313 0L23 1028H158L360 257Q363 246 374 188T393 93Q398 144 418 230Q422 246 424 254L608 1028H764L971 252Q980 216 988 177T1004 93Q1012 153 1034 246V248L1231 1028H1362L1075 0H918L725 731Q715
767 706 813T686 921Q677 869 668 822T647 731L467 0H313Z" />
<glyph unicode="x" glyph-name="x" horiz-adv-x="811" d="M162 0H25L326 555L78 1028H215L379 702Q385 691 395 665T410 631Q415 646 422 661T444 704L625 1028H750L485 559L786 0H641L438 393Q430 410 422 429T405 468Q400 457 391 437Q375 401 371 394L162 0Z" />
<glyph unicode="y" glyph-name="y" horiz-adv-x="801" d="M231 -389L352 12L25 1028H152L416 172L651 1028H774L356 -389H231Z" />
<glyph unicode="z" glyph-name="z" horiz-adv-x="696" d="M70 0V109L489 924H88V1028H629V924L209 109H629V0H70Z" />
<glyph unicode="{" glyph-name="braceleft" horiz-adv-x="1024" d="M848 1389H811Q676 1389 629 1338T582 1124V883Q582 708 539 635T387 530Q496 498 539 426T582 178V-63Q582 -225 628 -275T809 -326H848V-414H805Q616 -414 548 -340T479 -39V201Q479 359 421
423T221 487Q214 487 200 486T176 485V575Q186 574 196 574T225 573Q364 573 421 637T479 860V1100Q479 1327 547 1402T805 1477H848V1389Z" />
<glyph unicode="|" glyph-name="bar" horiz-adv-x="1024" d="M557 1565V-483H467V1565H557Z" />
<glyph unicode="}" glyph-name="braceright" horiz-adv-x="1024" d="M545 1100V860Q545 702 603 638T803 573Q810 573 824 574T848 575V485Q839 485 825 486T803 487Q661 487 603 423T545 201V-39Q545 -265 477 -339T219 -414H176V-326H215Q349 -326 395 -276T442
-63V178Q442 352 485 425T639 530Q529 562 486 635T442 883V1124Q442 1286 395 1337T213 1389H176V1477H219Q408 1477 476 1402T545 1100Z" />
<glyph unicode="~" glyph-name="asciitilde" horiz-adv-x="1706" d="M1530 647Q1424 573 1328 537T1143 500Q1044 500 877 561Q861 567 855 569Q843 573 822 581Q655 641 565 641Q482 641 390 604T178 481V573Q283 647 379 683T565 719Q665 719 836 658Q848 653
855 651Q863 648 882 641Q1050 580 1143 580Q1226 580 1318 617T1530 739V647Z" />
<glyph unicode="&#x80;" glyph-name="Euro" horiz-adv-x="940" d="M719 430H856V414Q856 215 754 98T481 -20Q294 -20 193 123T92 535V565H-35L0 655H86V827H-43L-10 918H92Q94 1208 197 1351T506 1495Q674 1495 759 1394T844 1092V1077H711V1085Q711 1234 655
1309T489 1384Q361 1384 293 1272T225 944V918H645L610 827H221Q221 807 220 773T219 725Q219 723 220 715Q221 684 221 655H522L489 565H225V535Q225 316 288 207T479 98Q587 98 653 180T719 397V430Z" />
</font>
</defs>
</svg>
